<?xml version="1.0" encoding="utf-8"?>
<!-- Generator: Adobe Illustrator 16.0.0, SVG Export Plug-In . SVG Version: 6.00 Build 0)  -->
<!DOCTYPE svg PUBLIC "-//W3C//DTD SVG 1.1//EN" "http://www.w3.org/Graphics/SVG/1.1/DTD/svg11.dtd">
<svg version="1.1" xmlns="http://www.w3.org/2000/svg" xmlns:xlink="http://www.w3.org/1999/xlink" x="0px" y="0px" width="409.5px"
	 height="178px" viewBox="40 63.5 409.5 178" enable-background="new 40 63.5 409.5 178" xml:space="preserve">
<g id="Layer_1">
	<g>
		<g>
			<path d="M79.318,76.171c1.367,0,2.733,0,4.1,0c0.54,0,0.54-0.836,0-0.836c-1.367,0-2.733,0-4.1,0
				C78.778,75.334,78.778,76.171,79.318,76.171L79.318,76.171z"/>
		</g>
	</g>
	<g>
		<g>
			<path d="M82.832,75.752c0,0.418,0,0.836,0,1.255c0,0.539,0.836,0.539,0.836,0c0-0.419,0-0.837,0-1.255
				C83.668,75.213,82.832,75.213,82.832,75.752L82.832,75.752z"/>
		</g>
	</g>
	<g>
		<g>
			<path d="M83.166,77.677c2.084,0.275,1.789,3.154-0.028,3.612c-0.523,0.132-0.301,0.939,0.222,0.807
				c2.814-0.71,2.769-4.865-0.194-5.256C82.633,76.769,82.639,77.607,83.166,77.677L83.166,77.677z"/>
		</g>
	</g>
	<g>
		<g>
			<path d="M82.832,81.693c0,8.506,0,17.012,0,25.518c0,0.539,0.836,0.539,0.836,0c0-8.506,0-17.012,0-25.518
				C83.668,81.153,82.832,81.153,82.832,81.693L82.832,81.693z"/>
		</g>
	</g>
	<g>
		<g>
			<path d="M78.899,81.693c0,8.534,0,17.069,0,25.601c0,0.54,0.837,0.54,0.837,0c0-8.532,0-17.067,0-25.601
				C79.736,81.153,78.899,81.153,78.899,81.693L78.899,81.693z"/>
		</g>
	</g>
	<g>
		<g>
			<path d="M79.401,77.008c-1.079,0.004-1.855,0.955-2.062,1.951c-0.241,1.163,0.792,2.05,1.432,2.863
				c0.333,0.424,0.921-0.172,0.591-0.592c-0.414-0.525-0.936-0.99-1.167-1.634c-0.261-0.727,0.448-1.748,1.206-1.751
				C79.941,77.842,79.941,77.005,79.401,77.008L79.401,77.008z"/>
		</g>
	</g>
	<g>
		<g>
			<path d="M79.804,77.231c-0.13-0.422-0.151-0.847-0.083-1.284c0.035-0.226-0.054-0.449-0.292-0.514
				c-0.201-0.056-0.48,0.066-0.515,0.292c-0.091,0.586-0.094,1.157,0.083,1.729C79.157,77.967,79.965,77.748,79.804,77.231
				L79.804,77.231z"/>
		</g>
	</g>
	<g>
		<g>
			<path d="M83.417,83.784c0.543,0,1.079-0.016,1.617-0.099c0.226-0.035,0.347-0.314,0.292-0.515
				c-0.065-0.239-0.289-0.327-0.515-0.292c-0.46,0.071-0.929,0.069-1.395,0.069C82.878,82.948,82.878,83.784,83.417,83.784
				L83.417,83.784z"/>
		</g>
	</g>
	<g>
		<g>
			<path d="M85.284,83.493c0.376-0.734,1.459-0.412,1.482,0.384c0.01,0.358-0.349,0.538-0.647,0.599
				c-0.377,0.077-0.683-0.166-0.835-0.484c-0.232-0.487-0.953-0.063-0.722,0.422c0.626,1.315,2.94,1.14,3.036-0.446
				c0.099-1.651-2.258-2.412-3.036-0.896C84.316,83.55,85.038,83.973,85.284,83.493L85.284,83.493z"/>
		</g>
	</g>
	<g>
		<g>
			<path d="M84.923,83.616c-0.418,0-0.836,0-1.255,0c-0.54,0-0.54,0.837,0,0.837c0.418,0,0.836,0,1.255,0
				C85.463,84.453,85.463,83.616,84.923,83.616L84.923,83.616z"/>
		</g>
	</g>
	<g>
		<g>
			<path d="M83.417,88.219c0.392-0.006,0.779-0.079,1.171-0.084c0.539-0.007,0.54-0.844,0-0.836
				c-0.393,0.005-0.779,0.078-1.171,0.083C82.878,87.389,82.878,88.225,83.417,88.219L83.417,88.219z"/>
		</g>
	</g>
	<g>
		<g>
			<path d="M85.159,87.827c0.216-0.516,1.233-0.537,1.491-0.069c0.326,0.592-1.03,1.125-1.366,0.584
				c-0.284-0.458-1.007-0.038-0.722,0.422c0.839,1.354,3.24,0.384,2.911-1.17c-0.145-0.679-0.872-0.984-1.495-0.997
				c-0.7-0.014-1.354,0.362-1.625,1.008C84.143,88.102,84.953,88.317,85.159,87.827L85.159,87.827z"/>
		</g>
	</g>
	<g>
		<g>
			<path d="M84.923,87.968c-0.392-0.005-0.779-0.078-1.171-0.084c-0.54-0.007-0.539,0.83,0,0.837
				c0.392,0.005,0.779,0.078,1.171,0.083C85.463,88.811,85.462,87.975,84.923,87.968L84.923,87.968z"/>
		</g>
	</g>
	<g>
		<g>
			<path d="M83.501,92.486c0.375,0,0.748-0.014,1.115-0.1c0.526-0.121,0.303-0.929-0.222-0.807
				c-0.294,0.068-0.592,0.068-0.893,0.068C82.961,91.648,82.961,92.486,83.501,92.486L83.501,92.486z"/>
		</g>
	</g>
	<g>
		<g>
			<path d="M85.075,92.094c0.235-0.805,1.327-0.563,1.565,0.119c0.136,0.389-0.006,0.84-0.415,0.959
				c-0.4,0.118-0.814-0.163-1.025-0.48c-0.297-0.446-1.022-0.027-0.723,0.422c0.444,0.668,1.171,1.033,1.97,0.865
				c0.8-0.168,1.178-1.047,1.043-1.791c-0.294-1.621-2.727-2.01-3.223-0.314C84.117,92.391,84.924,92.611,85.075,92.094
				L85.075,92.094z"/>
		</g>
	</g>
	<g>
		<g>
			<path d="M84.95,92.333c-0.388-0.073-0.783-0.095-1.171-0.167c-0.224-0.042-0.45,0.059-0.515,0.292
				c-0.057,0.206,0.068,0.472,0.292,0.515c0.389,0.073,0.784,0.094,1.171,0.168c0.224,0.041,0.451-0.06,0.515-0.293
				C85.3,92.641,85.175,92.375,84.95,92.333L84.95,92.333z"/>
		</g>
	</g>
	<g>
		<g>
			<path d="M83.585,96.669c0.279,0,0.557,0,0.836,0c0.54,0,0.54-0.837,0-0.837c-0.279,0-0.558,0-0.836,0
				C83.045,95.832,83.045,96.669,83.585,96.669L83.585,96.669z"/>
		</g>
	</g>
	<g>
		<g>
			<path d="M84.885,96.546c0.297-0.354,1.551-1.052,1.834-0.342c0.362,0.911-1.117,1.278-1.518,0.504
				c-0.249-0.479-0.97-0.056-0.723,0.422c0.762,1.47,3.05,0.908,3.122-0.713c0.036-0.801-0.659-1.292-1.383-1.321
				c-0.688-0.029-1.485,0.334-1.924,0.858C83.949,96.365,84.538,96.961,84.885,96.546L84.885,96.546z"/>
		</g>
	</g>
	<g>
		<g>
			<path d="M84.756,96.334c-0.382,0-0.767,0.001-1.144-0.068c-0.527-0.099-0.752,0.709-0.223,0.807
				c0.454,0.084,0.907,0.099,1.367,0.099C85.296,97.171,85.295,96.334,84.756,96.334L84.756,96.334z"/>
		</g>
	</g>
	<g>
		<g>
			<path d="M78.899,95.246c-0.39,0-0.781,0-1.171,0c-0.54,0-0.54,0.837,0,0.837c0.391,0,0.781,0,1.171,0
				C79.439,96.083,79.439,95.246,78.899,95.246L78.899,95.246z"/>
		</g>
	</g>
	<g>
		<g>
			<path d="M77.157,95.553c-0.116,0.358-0.371,0.411-0.684,0.235c-0.363-0.205-0.472-0.625-0.46-1.015
				c0.006-0.235,0.173-0.394,0.409-0.358c0.359,0.051,0.614,0.317,0.777,0.624c0.253,0.477,0.976,0.055,0.722-0.422
				c-0.314-0.592-0.893-1.027-1.577-1.039c-0.731-0.014-1.152,0.613-1.171,1.281c-0.021,0.756,0.411,1.476,1.112,1.764
				c0.754,0.311,1.438-0.105,1.678-0.848C78.131,95.262,77.323,95.043,77.157,95.553L77.157,95.553z"/>
		</g>
	</g>
	<g>
		<g>
			<path d="M77.561,95.33c0.474,0,0.948,0,1.422,0c0.54,0,0.54-0.837,0-0.837c-0.474,0-0.948,0-1.422,0
				C77.021,94.493,77.021,95.33,77.561,95.33L77.561,95.33z"/>
		</g>
	</g>
	<g>
		<g>
			<path d="M79.067,91.063c-0.446,0-0.893,0-1.339,0c-0.54,0-0.54,0.836,0,0.836c0.446,0,0.893,0,1.339,0
				C79.606,91.9,79.606,91.063,79.067,91.063L79.067,91.063z"/>
		</g>
	</g>
	<g>
		<g>
			<path d="M77.283,91.27c-0.354,0.764-1.212,0.474-1.378-0.258c-0.148-0.652,0.824-0.743,1.127-0.324
				c0.313,0.433,1.04,0.017,0.722-0.421c-0.396-0.547-0.985-0.802-1.653-0.642c-0.637,0.152-1.065,0.767-1.032,1.407
				c0.082,1.56,2.252,2.133,2.936,0.66C78.231,91.207,77.51,90.781,77.283,91.27L77.283,91.27z"/>
		</g>
	</g>
	<g>
		<g>
			<path d="M77.477,91.063c0.53,0,1.06,0,1.59,0c0.54,0,0.54-0.836,0-0.836c-0.53,0-1.06,0-1.59,0
				C76.938,90.226,76.938,91.063,77.477,91.063L77.477,91.063z"/>
		</g>
	</g>
	<g>
		<g>
			<path d="M79.15,86.796c-0.558,0-1.115,0-1.673,0c-0.539,0-0.539,0.837,0,0.837c0.558,0,1.116,0,1.673,0
				C79.69,87.633,79.69,86.796,79.15,86.796L79.15,86.796z"/>
		</g>
	</g>
	<g>
		<g>
			<path d="M76.975,87.298c-0.008,0.25-0.089,0.261-0.316,0.194c-0.293-0.088-0.525-0.365-0.604-0.65
				c-0.085-0.311,0.105-0.601,0.367-0.741c0.304-0.163,0.564,0.063,0.694,0.321c0.243,0.482,0.965,0.059,0.723-0.422
				c-0.316-0.626-1.005-0.944-1.676-0.692c-0.721,0.27-1.063,1.022-0.915,1.756c0.125,0.616,0.717,1.126,1.31,1.268
				c0.719,0.17,1.23-0.335,1.254-1.033C77.83,86.758,76.993,86.76,76.975,87.298L76.975,87.298z"/>
		</g>
	</g>
	<g>
		<g>
			<path d="M77.561,86.964c0.585,0,1.171,0,1.757,0c0.54,0,0.54-0.837,0-0.837c-0.586,0-1.171,0-1.757,0
				C77.021,86.127,77.021,86.964,77.561,86.964L77.561,86.964z"/>
		</g>
	</g>
	<g>
		<g>
			<path d="M78.983,82.529c-0.474,0-0.948,0-1.422,0c-0.54,0-0.54,0.837,0,0.837c0.474,0,0.948,0,1.422,0
				C79.523,83.366,79.523,82.529,78.983,82.529L78.983,82.529z"/>
		</g>
	</g>
	<g>
		<g>
			<path d="M77.157,82.836c-0.182,0.619-0.973,0.606-1.257,0.08c-0.318-0.591,0.887-1.075,1.28-0.677
				c0.38,0.384,0.971-0.207,0.592-0.591c-0.992-1.005-3.008,0.002-2.707,1.411c0.144,0.673,0.835,1.084,1.48,1.091
				c0.671,0.007,1.234-0.465,1.418-1.091C78.116,82.54,77.309,82.32,77.157,82.836L77.157,82.836z"/>
		</g>
	</g>
	<g>
		<g>
			<path d="M77.561,82.446c0.613,0,1.227,0,1.84,0c0.54,0,0.54-0.836,0-0.836c-0.613,0-1.227,0-1.84,0
				C77.021,81.609,77.021,82.446,77.561,82.446L77.561,82.446z"/>
		</g>
	</g>
	<g>
		<g>
			<path d="M79.485,107.043c-3.554,0.45-6.901,1.575-8.952,4.697c-1.267,1.928-1.724,4.154-1.532,6.433
				c0.204,2.418,1.018,4.742,1.379,7.136c0.08,0.532,0.887,0.305,0.807-0.223c-0.313-2.074-0.928-4.087-1.256-6.158
				c-0.37-2.332-0.001-4.529,1.2-6.566c1.77-3,5.085-4.069,8.354-4.482C80.012,107.813,80.019,106.975,79.485,107.043
				L79.485,107.043z"/>
		</g>
	</g>
	<g>
		<g>
			<path d="M70.365,125.197c0.044,0.492-0.43,0.865-0.714,1.211c-0.339,0.414,0.249,1.009,0.591,0.592
				c0.431-0.525,1.026-1.055,0.959-1.803C71.154,124.665,70.317,124.66,70.365,125.197L70.365,125.197z"/>
		</g>
	</g>
	<g>
		<g>
			<path d="M69.502,126.66c-0.189,0.32-0.364,0.695-0.196,1.061c0.131,0.285,0.453,0.369,0.739,0.385
				c0.526,0.028,1.288-0.317,1.715-0.162c0.508,0.187,0.725-0.623,0.223-0.807c-0.438-0.16-0.994,0.016-1.434,0.088
				c-0.163,0.026-0.433,0.061-0.538,0.045c-0.076-0.014-0.024,0.002,0.009,0.028c0.041,0.031,0.05,0.216,0.05,0.091
				c0-0.063,0.107-0.228,0.154-0.307C70.499,126.616,69.776,126.195,69.502,126.66L69.502,126.66z"/>
		</g>
	</g>
	<g>
		<g>
			<path d="M71.659,128.004c0.901,0.73,0.964,2.148,1.049,3.219c0.042,0.533,0.879,0.537,0.836,0
				c-0.101-1.287-0.21-2.934-1.293-3.811C71.836,127.076,71.24,127.664,71.659,128.004L71.659,128.004z"/>
		</g>
	</g>
	<g>
		<g>
			<path d="M72.708,131.305c-0.064,2.195,0.494,4.783-0.9,6.672c-0.412,0.56-0.897,1.074-1.424,1.524
				c-0.51,0.437-1.14,0.832-1.372-0.024c-0.141-0.521-0.948-0.299-0.807,0.224c0.617,2.284,2.769,0.513,3.69-0.517
				c0.66-0.736,1.147-1.457,1.419-2.414c0.5-1.758,0.178-3.668,0.23-5.465C73.561,130.766,72.724,130.768,72.708,131.305
				L72.708,131.305z"/>
		</g>
	</g>
	<g>
		<g>
			<path d="M68.313,139.125c-0.47,0.416-0.828,0.938-0.719,1.592c0.093,0.564,0.537,1.1,0.444,1.688
				c-0.082,0.527,0.724,0.755,0.807,0.223c0.08-0.509-0.017-0.936-0.212-1.408c-0.267-0.645-0.292-1.004,0.271-1.503
				C69.309,139.359,68.715,138.77,68.313,139.125L68.313,139.125z"/>
		</g>
	</g>
	<g>
		<g>
			<path d="M68.274,142.768c0.023,0.881-0.613,1.748-0.927,2.549c-0.489,1.248-0.512,2.701-0.799,4.006
				c-0.493,2.238-0.514,4.412,0.065,6.635c0.937,3.596,3.277,6.512,6.666,8.061c3.359,1.537,7.401,1.836,11.035,1.483
				c1.78-0.173,3.556-0.571,5.157-1.388c1.724-0.875,3.13-2.414,4.268-3.943c1.77-2.378,2.95-5.352,3.001-8.332
				c0.057-3.281-1.985-6.162-2.195-9.404c-0.035-0.535-0.871-0.539-0.836,0c0.144,2.217,1.036,4.24,1.676,6.342
				c0.688,2.262,0.601,4.438-0.123,6.676c-1.292,4.004-4.372,7.705-8.526,8.792c-3.704,0.969-7.962,0.7-11.603-0.412
				c-3.944-1.204-6.61-4.171-7.712-8.097c-0.691-2.463-0.322-4.678,0.125-7.137c0.22-1.207,0.314-2.443,0.828-3.572
				c0.324-0.713,0.758-1.452,0.737-2.258C69.096,142.229,68.26,142.229,68.274,142.768L68.274,142.768z"/>
		</g>
	</g>
	<g>
		<g>
			<path d="M94.53,142.488c-0.211-1.021,1.293-2.993-0.543-3.303c-0.528-0.09-0.753,0.717-0.223,0.807
				c0.596,0.102,0.253,0.805,0.135,1.216c-0.141,0.493-0.282,0.991-0.176,1.503C93.832,143.24,94.638,143.016,94.53,142.488
				L94.53,142.488z"/>
		</g>
	</g>
	<g>
		<g>
			<path d="M93.346,139.377c-0.616,1.037-1.25,0.299-1.745-0.445c-0.583-0.879-0.994-1.888-1.322-2.886
				c-0.361-1.101-0.494-2.282-0.564-3.433c-0.094-1.525-0.048-3.264,0.756-4.61c0.277-0.464-0.446-0.885-0.723-0.422
				c-0.928,1.553-0.963,3.521-0.856,5.274c0.088,1.44,0.347,2.858,0.863,4.207c0.572,1.492,2.624,5.58,4.313,2.738
				C94.345,139.335,93.622,138.914,93.346,139.377L93.346,139.377z"/>
		</g>
	</g>
	<g>
		<g>
			<path d="M90.305,128.027c0.851-0.344,1.488-0.416,2.271,0.125c0.445,0.309,0.863-0.416,0.422-0.721
				c-0.952-0.66-1.87-0.634-2.916-0.209C89.59,127.421,89.805,128.23,90.305,128.027L90.305,128.027z"/>
		</g>
	</g>
	<g>
		<g>
			<path d="M93.082,128.236c1.551-0.711-0.743-2.557-0.796-3.457c-0.033-0.535-0.869-0.538-0.837,0
				c0.033,0.557,0.334,1.027,0.633,1.479c0.138,0.208,0.889,1.112,0.578,1.255C92.17,127.738,92.596,128.46,93.082,128.236
				L93.082,128.236z"/>
		</g>
	</g>
	<g>
		<g>
			<path d="M92.145,124.991c1.756-3.611,1.997-7.976,0.507-11.712c-0.723-1.813-1.886-3.424-3.443-4.606
				c-1.626-1.235-3.756-1.368-5.68-1.782c-0.526-0.113-0.75,0.694-0.223,0.807c1.711,0.369,3.489,0.509,5.033,1.4
				c1.711,0.988,2.892,2.864,3.605,4.653c1.36,3.411,1.076,7.533-0.521,10.817C91.188,125.053,91.909,125.477,92.145,124.991
				L92.145,124.991z"/>
		</g>
	</g>
	<g>
		<g>
			<path d="M85.303,133.771c-0.562-0.683,0.691-0.932,1.14-0.729c0.989,0.446,1.108,2.083,1.178,2.997
				c0.167,2.171-0.148,4.382,0.41,6.514c0.369,1.411,1.597,3.102,3.203,2.197c0.893-0.503,1.521-2.055,0.426-2.678
				c-0.47-0.268-0.891,0.455-0.422,0.723c0.62,0.352-0.34,1.239-0.712,1.361c-1.108,0.359-1.645-1.588-1.806-2.311
				c-0.479-2.141-0.069-4.408-0.338-6.574c-0.176-1.414-0.843-3.285-2.578-3.164c-1.203,0.084-1.884,1.293-1.093,2.254
				C85.054,134.779,85.643,134.184,85.303,133.771L85.303,133.771z"/>
		</g>
	</g>
	<g>
		<g>
			<path d="M77.437,134.344c0.991-0.441,0.409-1.607-0.323-1.964c-1.481-0.72-2.265,1.17-2.52,2.269
				c-0.506,2.188-0.027,4.498-0.454,6.711c-0.197,1.022-0.721,2.506-1.845,2.82c-0.475,0.131-1.227-0.92-0.983-1.008
				c0.503-0.182,0.286-0.99-0.222-0.807c-1.041,0.376-0.584,1.66,0.014,2.232c1.275,1.219,2.76-0.348,3.331-1.468
				c0.985-1.937,0.778-4.347,0.8-6.444c0.011-1.025,0.031-2.793,0.939-3.494c0.393-0.303,1.185,0.276,0.839,0.432
				C76.523,133.842,76.949,134.563,77.437,134.344L77.437,134.344z"/>
		</g>
	</g>
	<g>
		<g>
			<path d="M109.722,124.162c1.366,0,2.732,0,4.099,0c0.54,0,0.54-0.836,0-0.836c-1.367,0-2.733,0-4.099,0
				C109.182,123.326,109.182,124.162,109.722,124.162L109.722,124.162z"/>
		</g>
	</g>
	<g>
		<g>
			<path d="M113.236,123.744c0,0.418,0,0.836,0,1.254c0,0.54,0.836,0.54,0.836,0c0-0.418,0-0.836,0-1.254
				C114.072,123.205,113.236,123.205,113.236,123.744L113.236,123.744z"/>
		</g>
	</g>
	<g>
		<g>
			<path d="M113.571,125.668c2.084,0.275,1.788,3.154-0.028,3.613c-0.523,0.132-0.301,0.938,0.222,0.807
				c2.814-0.711,2.768-4.865-0.194-5.256C113.037,124.762,113.044,125.6,113.571,125.668L113.571,125.668z"/>
		</g>
	</g>
	<g>
		<g>
			<path d="M113.236,129.684c0,8.506,0,17.012,0,25.519c0,0.54,0.836,0.54,0.836,0c0-8.507,0-17.013,0-25.519
				C114.072,129.145,113.236,129.145,113.236,129.684L113.236,129.684z"/>
		</g>
	</g>
	<g>
		<g>
			<path d="M109.303,129.684c0,8.535,0,17.067,0,25.603c0,0.54,0.836,0.54,0.836,0c0-8.534,0-17.067,0-25.603
				C110.14,129.145,109.303,129.145,109.303,129.684L109.303,129.684z"/>
		</g>
	</g>
	<g>
		<g>
			<path d="M109.805,124.999c-1.079,0.005-1.856,0.956-2.063,1.951c-0.241,1.163,0.792,2.05,1.432,2.862
				c0.333,0.424,0.921-0.172,0.592-0.59c-0.414-0.527-0.936-0.992-1.167-1.635c-0.261-0.727,0.447-1.748,1.206-1.751
				C110.344,125.834,110.345,124.997,109.805,124.999L109.805,124.999z"/>
		</g>
	</g>
	<g>
		<g>
			<path d="M110.209,125.223c-0.131-0.423-0.151-0.848-0.083-1.283c0.035-0.227-0.054-0.449-0.292-0.516
				c-0.2-0.055-0.479,0.067-0.514,0.292c-0.091,0.587-0.094,1.157,0.083,1.729C109.561,125.959,110.369,125.74,110.209,125.223
				L110.209,125.223z"/>
		</g>
	</g>
	<g>
		<g>
			<path d="M113.821,131.775c0.543,0,1.08-0.016,1.618-0.098c0.225-0.035,0.347-0.314,0.292-0.516
				c-0.066-0.238-0.29-0.327-0.515-0.292c-0.461,0.071-0.93,0.067-1.395,0.067C113.282,130.939,113.282,131.775,113.821,131.775
				L113.821,131.775z"/>
		</g>
	</g>
	<g>
		<g>
			<path d="M115.688,131.484c0.376-0.732,1.46-0.412,1.482,0.385c0.01,0.359-0.349,0.537-0.647,0.6
				c-0.377,0.076-0.683-0.168-0.835-0.486c-0.231-0.485-0.953-0.063-0.722,0.422c0.626,1.316,2.94,1.141,3.036-0.445
				c0.1-1.65-2.258-2.412-3.036-0.896C114.72,131.542,115.442,131.966,115.688,131.484L115.688,131.484z"/>
		</g>
	</g>
	<g>
		<g>
			<path d="M115.327,131.609c-0.418,0-0.837,0-1.255,0c-0.54,0-0.54,0.836,0,0.836c0.418,0,0.837,0,1.255,0
				C115.867,132.445,115.867,131.609,115.327,131.609L115.327,131.609z"/>
		</g>
	</g>
	<g>
		<g>
			<path d="M113.821,136.21c0.393-0.005,0.779-0.078,1.171-0.083c0.539-0.008,0.54-0.844,0-0.836
				c-0.392,0.005-0.779,0.078-1.171,0.083C113.282,135.381,113.281,136.219,113.821,136.21L113.821,136.21z"/>
		</g>
	</g>
	<g>
		<g>
			<path d="M115.563,135.818c0.216-0.516,1.233-0.537,1.491-0.068c0.326,0.591-1.03,1.125-1.366,0.583
				c-0.284-0.458-1.007-0.038-0.722,0.422c0.839,1.354,3.24,0.384,2.911-1.171c-0.144-0.68-0.871-0.984-1.495-0.997
				c-0.7-0.015-1.354,0.362-1.625,1.009C114.548,136.094,115.358,136.309,115.563,135.818L115.563,135.818z"/>
		</g>
	</g>
	<g>
		<g>
			<path d="M115.327,135.959c-0.393-0.005-0.779-0.078-1.171-0.083c-0.54-0.007-0.539,0.83,0,0.837
				c0.392,0.006,0.779,0.078,1.171,0.083C115.867,136.803,115.866,135.967,115.327,135.959L115.327,135.959z"/>
		</g>
	</g>
	<g>
		<g>
			<path d="M113.905,140.477c0.376,0,0.748-0.013,1.116-0.098c0.525-0.122,0.303-0.928-0.223-0.807
				c-0.294,0.068-0.592,0.068-0.893,0.068C113.365,139.641,113.365,140.477,113.905,140.477L113.905,140.477z"/>
		</g>
	</g>
	<g>
		<g>
			<path d="M115.48,140.086c0.235-0.805,1.327-0.563,1.565,0.119c0.136,0.391-0.006,0.839-0.415,0.959
				c-0.401,0.117-0.814-0.163-1.025-0.479c-0.297-0.447-1.022-0.029-0.723,0.422c0.444,0.666,1.171,1.031,1.97,0.865
				c0.8-0.168,1.178-1.049,1.043-1.793c-0.294-1.621-2.727-2.01-3.223-0.314C114.521,140.383,115.328,140.604,115.48,140.086
				L115.48,140.086z"/>
		</g>
	</g>
	<g>
		<g>
			<path d="M115.355,140.325c-0.388-0.074-0.783-0.095-1.171-0.169c-0.224-0.041-0.45,0.061-0.515,0.293
				c-0.057,0.205,0.068,0.472,0.292,0.515c0.389,0.073,0.784,0.095,1.171,0.167c0.224,0.042,0.451-0.059,0.515-0.292
				C115.703,140.633,115.579,140.367,115.355,140.325L115.355,140.325z"/>
		</g>
	</g>
	<g>
		<g>
			<path d="M113.989,144.66c0.279,0,0.558,0,0.837,0c0.54,0,0.54-0.836,0-0.836c-0.279,0-0.558,0-0.837,0
				C113.449,143.822,113.449,144.66,113.989,144.66L113.989,144.66z"/>
		</g>
	</g>
	<g>
		<g>
			<path d="M115.288,144.538c0.297-0.354,1.551-1.052,1.834-0.343c0.363,0.912-1.116,1.279-1.518,0.505
				c-0.249-0.479-0.971-0.056-0.723,0.422c0.762,1.47,3.05,0.907,3.122-0.713c0.036-0.802-0.659-1.292-1.383-1.322
				c-0.688-0.028-1.485,0.334-1.924,0.858C114.353,144.357,114.942,144.952,115.288,144.538L115.288,144.538z"/>
		</g>
	</g>
	<g>
		<g>
			<path d="M115.16,144.325c-0.382,0-0.767,0.001-1.144-0.068c-0.527-0.098-0.753,0.708-0.223,0.808
				c0.453,0.082,0.907,0.098,1.366,0.099C115.699,145.162,115.699,144.325,115.16,144.325L115.16,144.325z"/>
		</g>
	</g>
	<g>
		<g>
			<path d="M109.303,143.238c-0.391,0-0.781,0-1.171,0c-0.54,0-0.54,0.837,0,0.837c0.39,0,0.781,0,1.171,0
				C109.843,144.075,109.843,143.238,109.303,143.238L109.303,143.238z"/>
		</g>
	</g>
	<g>
		<g>
			<path d="M107.561,143.545c-0.116,0.357-0.371,0.41-0.683,0.234c-0.363-0.205-0.472-0.625-0.461-1.014
				c0.007-0.236,0.174-0.394,0.41-0.359c0.359,0.052,0.614,0.318,0.777,0.625c0.253,0.476,0.976,0.054,0.722-0.424
				c-0.314-0.59-0.893-1.025-1.577-1.039c-0.73-0.012-1.151,0.615-1.17,1.283c-0.021,0.754,0.411,1.475,1.112,1.762
				c0.755,0.311,1.438-0.105,1.678-0.846C108.535,143.253,107.727,143.034,107.561,143.545L107.561,143.545z"/>
		</g>
	</g>
	<g>
		<g>
			<path d="M107.965,143.322c0.474,0,0.948,0,1.422,0c0.54,0,0.54-0.838,0-0.838c-0.474,0-0.948,0-1.422,0
				C107.425,142.484,107.425,143.322,107.965,143.322L107.965,143.322z"/>
		</g>
	</g>
	<g>
		<g>
			<path d="M109.47,139.055c-0.446,0-0.892,0-1.338,0c-0.54,0-0.54,0.836,0,0.836c0.446,0,0.893,0,1.338,0
				C110.01,139.891,110.01,139.055,109.47,139.055L109.47,139.055z"/>
		</g>
	</g>
	<g>
		<g>
			<path d="M107.687,139.262c-0.355,0.764-1.213,0.473-1.379-0.258c-0.148-0.652,0.824-0.742,1.128-0.324
				c0.313,0.434,1.04,0.016,0.722-0.422c-0.396-0.547-0.985-0.802-1.653-0.642c-0.638,0.151-1.065,0.767-1.032,1.407
				c0.082,1.56,2.252,2.133,2.936,0.66C108.635,139.197,107.914,138.773,107.687,139.262L107.687,139.262z"/>
		</g>
	</g>
	<g>
		<g>
			<path d="M107.881,139.055c0.53,0,1.06,0,1.589,0c0.54,0,0.54-0.836,0-0.836c-0.53,0-1.06,0-1.589,0
				C107.342,138.219,107.342,139.055,107.881,139.055L107.881,139.055z"/>
		</g>
	</g>
	<g>
		<g>
			<path d="M109.554,134.788c-0.558,0-1.116,0-1.673,0c-0.54,0-0.54,0.837,0,0.837c0.558,0,1.116,0,1.673,0
				C110.094,135.625,110.094,134.788,109.554,134.788L109.554,134.788z"/>
		</g>
	</g>
	<g>
		<g>
			<path d="M107.379,135.29c-0.009,0.25-0.09,0.261-0.317,0.192c-0.292-0.088-0.525-0.363-0.604-0.649
				c-0.085-0.312,0.105-0.601,0.367-0.741c0.304-0.162,0.564,0.063,0.694,0.321c0.243,0.481,0.965,0.058,0.723-0.422
				c-0.316-0.626-1.005-0.943-1.676-0.692c-0.72,0.271-1.063,1.023-0.915,1.758c0.125,0.615,0.717,1.127,1.31,1.268
				c0.719,0.17,1.23-0.336,1.254-1.033C108.234,134.75,107.397,134.752,107.379,135.29L107.379,135.29z"/>
		</g>
	</g>
	<g>
		<g>
			<path d="M107.965,134.955c0.586,0,1.171,0,1.757,0c0.539,0,0.539-0.837,0-0.837c-0.586,0-1.171,0-1.757,0
				C107.425,134.118,107.425,134.955,107.965,134.955L107.965,134.955z"/>
		</g>
	</g>
	<g>
		<g>
			<path d="M109.387,130.521c-0.474,0-0.948,0-1.422,0c-0.54,0-0.54,0.836,0,0.836c0.474,0,0.948,0,1.422,0
				C109.927,131.357,109.927,130.521,109.387,130.521L109.387,130.521z"/>
		</g>
	</g>
	<g>
		<g>
			<path d="M107.561,130.828c-0.182,0.619-0.973,0.605-1.256,0.08c-0.318-0.592,0.887-1.075,1.28-0.678
				c0.379,0.385,0.971-0.207,0.592-0.592c-0.992-1.004-3.008,0.004-2.707,1.411c0.144,0.673,0.835,1.084,1.48,1.093
				c0.671,0.006,1.234-0.465,1.418-1.093C108.521,130.531,107.713,130.311,107.561,130.828L107.561,130.828z"/>
		</g>
	</g>
	<g>
		<g>
			<path d="M107.965,130.438c0.614,0,1.227,0,1.841,0c0.539,0,0.539-0.838,0-0.838c-0.614,0-1.227,0-1.841,0
				C107.425,129.6,107.425,130.438,107.965,130.438L107.965,130.438z"/>
		</g>
	</g>
	<g>
		<g>
			<path d="M109.889,155.034c-3.554,0.45-6.901,1.575-8.952,4.698c-1.267,1.927-1.724,4.154-1.531,6.433
				c0.204,2.417,1.018,4.741,1.379,7.136c0.08,0.533,0.886,0.307,0.807-0.222c-0.313-2.075-0.928-4.087-1.256-6.158
				c-0.37-2.333-0.001-4.528,1.201-6.567c1.77-3,5.085-4.068,8.354-4.481C110.417,155.805,110.423,154.967,109.889,155.034
				L109.889,155.034z"/>
		</g>
	</g>
	<g>
		<g>
			<path d="M100.769,173.189c0.044,0.492-0.43,0.863-0.714,1.209c-0.339,0.414,0.25,1.01,0.592,0.592
				c0.431-0.525,1.026-1.055,0.959-1.803C101.558,172.656,100.721,172.652,100.769,173.189L100.769,173.189z"/>
		</g>
	</g>
	<g>
		<g>
			<path d="M99.906,174.652c-0.189,0.32-0.364,0.695-0.196,1.06c0.131,0.286,0.452,0.369,0.739,0.386
				c0.526,0.028,1.288-0.318,1.715-0.162c0.508,0.187,0.725-0.623,0.222-0.807c-0.438-0.16-0.994,0.014-1.434,0.087
				c-0.163,0.027-0.433,0.062-0.538,0.044c-0.076-0.013-0.024,0.004,0.009,0.03c0.04,0.03,0.05,0.217,0.05,0.091
				c0-0.063,0.107-0.229,0.154-0.307C100.904,174.607,100.18,174.188,99.906,174.652L99.906,174.652z"/>
		</g>
	</g>
	<g>
		<g>
			<path d="M102.064,175.995c0.901,0.729,0.964,2.149,1.049,3.218c0.042,0.534,0.879,0.538,0.836,0
				c-0.101-1.285-0.21-2.932-1.294-3.811C102.24,175.068,101.644,175.656,102.064,175.995L102.064,175.995z"/>
		</g>
	</g>
	<g>
		<g>
			<path d="M103.112,179.298c-0.064,2.195,0.494,4.783-0.9,6.671c-0.412,0.559-0.897,1.073-1.424,1.524
				c-0.51,0.437-1.14,0.832-1.372-0.024c-0.14-0.521-0.948-0.3-0.807,0.223c0.617,2.283,2.769,0.512,3.69-0.517
				c0.66-0.737,1.147-1.456,1.42-2.415c0.5-1.757,0.178-3.666,0.23-5.463C103.965,178.757,103.128,178.759,103.112,179.298
				L103.112,179.298z"/>
		</g>
	</g>
	<g>
		<g>
			<path d="M98.717,187.117c-0.47,0.416-0.828,0.938-0.719,1.592c0.093,0.564,0.536,1.1,0.444,1.688
				c-0.082,0.528,0.724,0.754,0.807,0.223c0.08-0.51-0.017-0.936-0.212-1.407c-0.267-0.646-0.292-1.004,0.271-1.503
				C99.713,187.35,99.119,186.762,98.717,187.117L98.717,187.117z"/>
		</g>
	</g>
	<g>
		<g>
			<path d="M98.678,190.76c0.022,0.881-0.613,1.747-0.927,2.549c-0.49,1.248-0.512,2.701-0.799,4.006
				c-0.494,2.238-0.514,4.412,0.065,6.635c0.938,3.596,3.277,6.511,6.666,8.061c3.359,1.537,7.4,1.836,11.034,1.483
				c1.78-0.173,3.556-0.572,5.157-1.386c1.724-0.877,3.13-2.416,4.269-3.945c1.77-2.378,2.95-5.35,3.001-8.332
				c0.057-3.281-1.984-6.162-2.195-9.405c-0.034-0.536-0.871-0.538-0.836,0c0.144,2.218,1.036,4.24,1.676,6.343
				c0.689,2.262,0.601,4.438-0.123,6.676c-1.293,4.004-4.372,7.705-8.526,8.791c-3.704,0.972-7.961,0.701-11.603-0.41
				c-3.944-1.205-6.61-4.172-7.712-8.096c-0.691-2.465-0.323-4.681,0.125-7.138c0.22-1.208,0.314-2.444,0.828-3.573
				c0.324-0.713,0.759-1.451,0.738-2.258C99.501,190.221,98.664,190.219,98.678,190.76L98.678,190.76z"/>
		</g>
	</g>
	<g>
		<g>
			<path d="M124.934,190.48c-0.211-1.022,1.292-2.994-0.543-3.305c-0.527-0.089-0.753,0.717-0.223,0.807
				c0.597,0.102,0.253,0.806,0.136,1.217c-0.141,0.492-0.283,0.992-0.177,1.504C124.236,191.23,125.042,191.007,124.934,190.48
				L124.934,190.48z"/>
		</g>
	</g>
	<g>
		<g>
			<path d="M123.751,187.369c-0.616,1.035-1.25,0.3-1.745-0.446c-0.583-0.878-0.994-1.887-1.322-2.885
				c-0.361-1.101-0.494-2.282-0.564-3.433c-0.094-1.525-0.048-3.265,0.756-4.611c0.277-0.465-0.446-0.885-0.723-0.422
				c-0.928,1.554-0.963,3.521-0.856,5.275c0.089,1.44,0.347,2.857,0.863,4.207c0.572,1.491,2.624,5.577,4.313,2.736
				C124.75,187.326,124.026,186.906,123.751,187.369L123.751,187.369z"/>
		</g>
	</g>
	<g>
		<g>
			<path d="M120.709,176.02c0.851-0.345,1.488-0.416,2.271,0.125c0.445,0.31,0.863-0.416,0.422-0.722
				c-0.952-0.659-1.87-0.633-2.916-0.209C119.994,175.413,120.209,176.221,120.709,176.02L120.709,176.02z"/>
		</g>
	</g>
	<g>
		<g>
			<path d="M123.487,176.229c1.55-0.711-0.743-2.559-0.797-3.457c-0.032-0.537-0.869-0.541-0.836,0
				c0.033,0.556,0.334,1.026,0.633,1.479c0.138,0.209,0.889,1.113,0.578,1.256C122.574,175.73,123,176.452,123.487,176.229
				L123.487,176.229z"/>
		</g>
	</g>
	<g>
		<g>
			<path d="M122.549,172.982c1.756-3.61,1.996-7.976,0.506-11.711c-0.723-1.813-1.885-3.424-3.443-4.606
				c-1.626-1.235-3.755-1.368-5.68-1.782c-0.526-0.113-0.75,0.694-0.222,0.807c1.711,0.369,3.489,0.508,5.033,1.4
				c1.712,0.989,2.892,2.864,3.605,4.653c1.36,3.411,1.075,7.534-0.522,10.817C121.592,173.043,122.313,173.469,122.549,172.982
				L122.549,172.982z"/>
		</g>
	</g>
	<g>
		<g>
			<path d="M115.707,181.762c-0.562-0.682,0.692-0.931,1.14-0.729c0.989,0.445,1.108,2.082,1.178,2.998
				c0.167,2.171-0.148,4.382,0.41,6.514c0.369,1.41,1.597,3.102,3.203,2.195c0.893-0.504,1.521-2.053,0.426-2.678
				c-0.47-0.267-0.891,0.457-0.422,0.723c0.619,0.354-0.34,1.24-0.712,1.361c-1.108,0.361-1.645-1.588-1.806-2.311
				c-0.479-2.141-0.069-4.406-0.339-6.574c-0.175-1.412-0.843-3.285-2.577-3.162c-1.203,0.084-1.885,1.293-1.093,2.254
				C115.458,182.771,116.047,182.175,115.707,181.762L115.707,181.762z"/>
		</g>
	</g>
	<g>
		<g>
			<path d="M107.841,182.336c0.991-0.443,0.41-1.607-0.323-1.964c-1.48-0.72-2.265,1.17-2.519,2.269
				c-0.506,2.188-0.027,4.498-0.454,6.711c-0.197,1.023-0.721,2.506-1.845,2.819c-0.475,0.132-1.227-0.919-0.983-1.007
				c0.503-0.182,0.286-0.991-0.223-0.807c-1.041,0.377-0.584,1.662,0.014,2.232c1.275,1.221,2.76-0.346,3.331-1.467
				c0.986-1.936,0.778-4.346,0.8-6.443c0.011-1.027,0.031-2.793,0.939-3.494c0.393-0.305,1.186,0.274,0.839,0.43
				C106.927,181.833,107.353,182.555,107.841,182.336L107.841,182.336z"/>
		</g>
	</g>
	<g>
		<g>
			<path d="M140.109,76.248c1.367,0,2.733,0,4.1,0c0.54,0,0.54-0.836,0-0.836c-1.367,0-2.733,0-4.1,0
				C139.57,75.411,139.57,76.248,140.109,76.248L140.109,76.248z"/>
		</g>
	</g>
	<g>
		<g>
			<path d="M143.623,75.829c0,0.418,0,0.837,0,1.255c0,0.539,0.836,0.539,0.836,0c0-0.418,0-0.837,0-1.255
				C144.46,75.29,143.623,75.29,143.623,75.829L143.623,75.829z"/>
		</g>
	</g>
	<g>
		<g>
			<path d="M143.958,77.754c2.084,0.275,1.789,3.153-0.028,3.612c-0.522,0.132-0.301,0.939,0.223,0.807
				c2.814-0.71,2.768-4.865-0.195-5.256C143.424,76.847,143.431,77.684,143.958,77.754L143.958,77.754z"/>
		</g>
	</g>
	<g>
		<g>
			<path d="M143.623,81.77c0,8.506,0,17.011,0,25.518c0,0.54,0.836,0.54,0.836,0c0-8.507,0-17.012,0-25.518
				C144.46,81.23,143.623,81.23,143.623,81.77L143.623,81.77z"/>
		</g>
	</g>
	<g>
		<g>
			<path d="M139.691,81.77c0,8.534,0,17.068,0,25.601c0,0.54,0.836,0.54,0.836,0c0-8.533,0-17.067,0-25.601
				C140.528,81.23,139.691,81.23,139.691,81.77L139.691,81.77z"/>
		</g>
	</g>
	<g>
		<g>
			<path d="M140.193,77.085c-1.079,0.005-1.856,0.956-2.063,1.951c-0.241,1.163,0.792,2.051,1.432,2.863
				c0.333,0.424,0.921-0.172,0.592-0.591c-0.414-0.526-0.936-0.991-1.167-1.634c-0.261-0.726,0.448-1.748,1.206-1.751
				C140.732,77.919,140.732,77.082,140.193,77.085L140.193,77.085z"/>
		</g>
	</g>
	<g>
		<g>
			<path d="M140.596,77.308c-0.131-0.422-0.151-0.847-0.084-1.284c0.035-0.225-0.053-0.448-0.292-0.514
				c-0.2-0.056-0.479,0.066-0.515,0.292c-0.09,0.586-0.093,1.157,0.083,1.728C139.948,78.044,140.757,77.824,140.596,77.308
				L140.596,77.308z"/>
		</g>
	</g>
	<g>
		<g>
			<path d="M144.209,83.861c0.543,0,1.08-0.016,1.618-0.098c0.225-0.035,0.347-0.314,0.292-0.515
				c-0.066-0.239-0.29-0.327-0.515-0.292c-0.461,0.072-0.93,0.069-1.395,0.069C143.669,83.025,143.669,83.862,144.209,83.861
				L144.209,83.861z"/>
		</g>
	</g>
	<g>
		<g>
			<path d="M146.076,83.57c0.376-0.733,1.459-0.412,1.482,0.384c0.01,0.359-0.349,0.539-0.647,0.599
				c-0.377,0.077-0.683-0.167-0.835-0.485c-0.232-0.487-0.953-0.063-0.722,0.422c0.626,1.314,2.94,1.14,3.036-0.447
				c0.1-1.651-2.258-2.412-3.036-0.896C145.108,83.627,145.829,84.051,146.076,83.57L146.076,83.57z"/>
		</g>
	</g>
	<g>
		<g>
			<path d="M145.715,83.694c-0.418,0-0.836,0-1.255,0c-0.54,0-0.54,0.836,0,0.836c0.418,0,0.837,0,1.255,0
				C146.254,84.531,146.254,83.694,145.715,83.694L145.715,83.694z"/>
		</g>
	</g>
	<g>
		<g>
			<path d="M144.209,88.296c0.393-0.005,0.779-0.078,1.171-0.083c0.539-0.007,0.54-0.844,0-0.837
				c-0.392,0.005-0.779,0.079-1.171,0.083C143.67,87.466,143.669,88.303,144.209,88.296L144.209,88.296z"/>
		</g>
	</g>
	<g>
		<g>
			<path d="M145.951,87.905c0.216-0.516,1.232-0.537,1.491-0.069c0.326,0.591-1.03,1.125-1.366,0.583
				c-0.284-0.458-1.008-0.038-0.722,0.422c0.839,1.354,3.24,0.384,2.911-1.17c-0.144-0.68-0.872-0.984-1.495-0.997
				c-0.7-0.014-1.354,0.362-1.626,1.008C144.935,88.179,145.745,88.395,145.951,87.905L145.951,87.905z"/>
		</g>
	</g>
	<g>
		<g>
			<path d="M145.715,88.045c-0.392-0.005-0.779-0.078-1.171-0.083c-0.54-0.007-0.539,0.83,0,0.836
				c0.393,0.005,0.779,0.079,1.171,0.084C146.254,88.888,146.254,88.052,145.715,88.045L145.715,88.045z"/>
		</g>
	</g>
	<g>
		<g>
			<path d="M144.292,92.563c0.375,0,0.748-0.014,1.115-0.099c0.526-0.122,0.303-0.928-0.222-0.807
				c-0.294,0.069-0.592,0.069-0.893,0.069C143.753,91.727,143.753,92.563,144.292,92.563L144.292,92.563z"/>
		</g>
	</g>
	<g>
		<g>
			<path d="M145.867,92.172c0.235-0.805,1.327-0.563,1.565,0.119c0.137,0.389-0.006,0.838-0.415,0.959
				c-0.4,0.118-0.814-0.163-1.025-0.48c-0.297-0.447-1.022-0.028-0.723,0.422c0.443,0.668,1.171,1.033,1.97,0.865
				c0.799-0.168,1.178-1.048,1.042-1.793c-0.294-1.619-2.727-2.009-3.222-0.313C144.908,92.469,145.716,92.688,145.867,92.172
				L145.867,92.172z"/>
		</g>
	</g>
	<g>
		<g>
			<path d="M145.742,92.41c-0.388-0.073-0.784-0.094-1.171-0.167c-0.224-0.042-0.451,0.06-0.515,0.292
				c-0.057,0.206,0.068,0.473,0.292,0.515c0.388,0.073,0.784,0.095,1.171,0.167c0.224,0.042,0.45-0.059,0.515-0.292
				C146.091,92.719,145.967,92.452,145.742,92.41L145.742,92.41z"/>
		</g>
	</g>
	<g>
		<g>
			<path d="M144.376,96.746c0.279,0,0.558,0,0.836,0c0.54,0,0.54-0.837,0-0.837c-0.279,0-0.558,0-0.836,0
				C143.836,95.909,143.836,96.746,144.376,96.746L144.376,96.746z"/>
		</g>
	</g>
	<g>
		<g>
			<path d="M145.676,96.623c0.297-0.355,1.551-1.053,1.834-0.342c0.363,0.912-1.116,1.279-1.518,0.505
				c-0.249-0.479-0.971-0.056-0.723,0.422c0.762,1.47,3.05,0.908,3.122-0.713c0.036-0.802-0.659-1.292-1.383-1.322
				c-0.688-0.028-1.485,0.334-1.924,0.858C144.74,96.441,145.329,97.038,145.676,96.623L145.676,96.623z"/>
		</g>
	</g>
	<g>
		<g>
			<path d="M145.548,96.411c-0.383,0-0.767,0.001-1.144-0.067c-0.527-0.099-0.752,0.707-0.222,0.807
				c0.453,0.084,0.906,0.099,1.366,0.099C146.087,97.248,146.087,96.411,145.548,96.411L145.548,96.411z"/>
		</g>
	</g>
	<g>
		<g>
			<path d="M139.691,95.322c-0.391,0-0.781,0-1.171,0c-0.54,0-0.54,0.837,0,0.837c0.39,0,0.781,0,1.171,0
				C140.23,96.16,140.23,95.322,139.691,95.322L139.691,95.322z"/>
		</g>
	</g>
	<g>
		<g>
			<path d="M137.949,95.631c-0.116,0.357-0.371,0.41-0.683,0.234c-0.363-0.205-0.472-0.624-0.461-1.014
				c0.006-0.235,0.173-0.394,0.409-0.359c0.359,0.051,0.614,0.318,0.777,0.624c0.254,0.477,0.976,0.054,0.723-0.423
				c-0.314-0.59-0.894-1.025-1.578-1.039c-0.73-0.014-1.151,0.613-1.17,1.281c-0.021,0.756,0.41,1.476,1.112,1.764
				c0.754,0.31,1.438-0.106,1.678-0.848C138.923,95.339,138.115,95.119,137.949,95.631L137.949,95.631z"/>
		</g>
	</g>
	<g>
		<g>
			<path d="M138.352,95.406c0.474,0,0.948,0,1.422,0c0.54,0,0.54-0.836,0-0.836c-0.474,0-0.948,0-1.422,0
				C137.813,94.57,137.813,95.406,138.352,95.406L138.352,95.406z"/>
		</g>
	</g>
	<g>
		<g>
			<path d="M139.858,91.141c-0.446,0-0.893,0-1.338,0c-0.54,0-0.54,0.836,0,0.836c0.446,0,0.892,0,1.338,0
				C140.398,91.977,140.398,91.141,139.858,91.141L139.858,91.141z"/>
		</g>
	</g>
	<g>
		<g>
			<path d="M138.074,91.348c-0.354,0.764-1.212,0.473-1.378-0.259c-0.148-0.652,0.824-0.743,1.127-0.323
				c0.313,0.432,1.04,0.014,0.723-0.422c-0.397-0.547-0.985-0.802-1.653-0.642c-0.638,0.152-1.065,0.767-1.031,1.408
				c0.082,1.56,2.251,2.133,2.935,0.66C139.023,91.284,138.302,90.859,138.074,91.348L138.074,91.348z"/>
		</g>
	</g>
	<g>
		<g>
			<path d="M138.269,91.141c0.53,0,1.06,0,1.589,0c0.54,0,0.54-0.837,0-0.837c-0.53,0-1.06,0-1.589,0
				C137.729,90.303,137.729,91.141,138.269,91.141L138.269,91.141z"/>
		</g>
	</g>
	<g>
		<g>
			<path d="M139.942,86.873c-0.558,0-1.115,0-1.673,0c-0.54,0-0.54,0.836,0,0.836c0.558,0,1.115,0,1.673,0
				C140.481,87.71,140.481,86.873,139.942,86.873L139.942,86.873z"/>
		</g>
	</g>
	<g>
		<g>
			<path d="M137.767,87.375c-0.009,0.25-0.089,0.262-0.317,0.194c-0.292-0.088-0.525-0.364-0.603-0.65
				c-0.086-0.311,0.105-0.601,0.367-0.741c0.303-0.163,0.563,0.063,0.694,0.321c0.243,0.481,0.964,0.058,0.722-0.422
				c-0.316-0.626-1.005-0.944-1.676-0.692c-0.721,0.271-1.063,1.023-0.915,1.756c0.125,0.616,0.717,1.126,1.31,1.267
				c0.719,0.171,1.23-0.335,1.254-1.033C138.621,86.836,137.784,86.838,137.767,87.375L137.767,87.375z"/>
		</g>
	</g>
	<g>
		<g>
			<path d="M138.352,87.041c0.585,0,1.171,0,1.757,0c0.54,0,0.54-0.837,0-0.837c-0.585,0-1.171,0-1.757,0
				C137.813,86.204,137.813,87.041,138.352,87.041L138.352,87.041z"/>
		</g>
	</g>
	<g>
		<g>
			<path d="M139.775,82.607c-0.474,0-0.948,0-1.422,0c-0.54,0-0.54,0.836,0,0.836c0.474,0,0.948,0,1.422,0
				C140.314,83.443,140.314,82.607,139.775,82.607L139.775,82.607z"/>
		</g>
	</g>
	<g>
		<g>
			<path d="M137.949,82.913c-0.182,0.619-0.973,0.606-1.256,0.081c-0.319-0.592,0.887-1.076,1.28-0.677
				c0.379,0.385,0.971-0.208,0.591-0.591c-0.992-1.005-3.008,0.002-2.707,1.411c0.144,0.672,0.835,1.084,1.48,1.091
				c0.671,0.007,1.234-0.465,1.418-1.091C138.908,82.617,138.101,82.397,137.949,82.913L137.949,82.913z"/>
		</g>
	</g>
	<g>
		<g>
			<path d="M138.352,82.523c0.613,0,1.227,0,1.841,0c0.54,0,0.54-0.836,0-0.836c-0.614,0-1.228,0-1.841,0
				C137.813,81.686,137.813,82.523,138.352,82.523L138.352,82.523z"/>
		</g>
	</g>
	<g>
		<g>
			<path d="M140.277,107.12c-3.554,0.45-6.901,1.575-8.952,4.698c-1.267,1.928-1.724,4.154-1.532,6.433
				c0.204,2.418,1.018,4.743,1.379,7.136c0.08,0.532,0.886,0.307,0.807-0.222c-0.313-2.075-0.928-4.087-1.256-6.158
				c-0.37-2.332-0.001-4.528,1.201-6.567c1.77-3,5.085-4.068,8.354-4.481C140.804,107.891,140.811,107.053,140.277,107.12
				L140.277,107.12z"/>
		</g>
	</g>
	<g>
		<g>
			<path d="M131.157,125.275c0.044,0.492-0.43,0.863-0.714,1.209c-0.338,0.414,0.25,1.01,0.592,0.592
				c0.431-0.526,1.026-1.055,0.959-1.803C131.946,124.743,131.109,124.738,131.157,125.275L131.157,125.275z"/>
		</g>
	</g>
	<g>
		<g>
			<path d="M130.294,126.738c-0.189,0.32-0.364,0.693-0.196,1.06c0.131,0.286,0.452,0.371,0.739,0.386
				c0.525,0.029,1.288-0.317,1.715-0.16c0.508,0.186,0.725-0.625,0.223-0.808c-0.438-0.159-0.994,0.015-1.434,0.089
				c-0.163,0.025-0.432,0.061-0.537,0.043c-0.076-0.013-0.024,0.004,0.009,0.029c0.04,0.031,0.05,0.217,0.05,0.091
				c0-0.063,0.107-0.228,0.154-0.307C131.291,126.693,130.568,126.273,130.294,126.738L130.294,126.738z"/>
		</g>
	</g>
	<g>
		<g>
			<path d="M132.451,128.081c0.902,0.729,0.965,2.149,1.049,3.218c0.042,0.534,0.879,0.538,0.836,0
				c-0.101-1.285-0.21-2.933-1.293-3.811C132.627,127.154,132.031,127.742,132.451,128.081L132.451,128.081z"/>
		</g>
	</g>
	<g>
		<g>
			<path d="M133.5,131.383c-0.064,2.195,0.494,4.783-0.9,6.672c-0.413,0.559-0.897,1.073-1.425,1.523
				c-0.51,0.438-1.14,0.832-1.372-0.023c-0.141-0.521-0.948-0.3-0.807,0.221c0.617,2.285,2.769,0.514,3.69-0.516
				c0.66-0.736,1.146-1.457,1.419-2.414c0.5-1.758,0.178-3.668,0.23-5.464C134.352,130.844,133.515,130.844,133.5,131.383
				L133.5,131.383z"/>
		</g>
	</g>
	<g>
		<g>
			<path d="M129.104,139.202c-0.47,0.417-0.828,0.938-0.719,1.593c0.094,0.564,0.536,1.1,0.444,1.688
				c-0.083,0.529,0.724,0.754,0.807,0.223c0.08-0.51-0.017-0.936-0.212-1.408c-0.267-0.645-0.292-1.004,0.271-1.503
				C130.1,139.436,129.507,138.846,129.104,139.202L129.104,139.202z"/>
		</g>
	</g>
	<g>
		<g>
			<path d="M129.066,142.846c0.022,0.881-0.613,1.746-0.927,2.547c-0.489,1.25-0.512,2.703-0.799,4.006
				c-0.493,2.238-0.514,4.412,0.065,6.636c0.938,3.597,3.277,6.511,6.666,8.062c3.359,1.536,7.401,1.836,11.034,1.482
				c1.78-0.174,3.556-0.572,5.157-1.387c1.724-0.877,3.13-2.416,4.268-3.944c1.77-2.379,2.95-5.351,3.001-8.332
				c0.057-3.281-1.985-6.162-2.195-9.405c-0.034-0.535-0.871-0.539-0.836,0c0.143,2.219,1.036,4.24,1.676,6.342
				c0.689,2.262,0.601,4.438-0.123,6.676c-1.293,4.004-4.372,7.705-8.526,8.793c-3.704,0.97-7.961,0.701-11.604-0.412
				c-3.943-1.205-6.61-4.172-7.712-8.096c-0.691-2.463-0.322-4.68,0.126-7.138c0.22-1.208,0.314-2.442,0.828-3.573
				c0.324-0.713,0.758-1.451,0.738-2.256C129.888,142.307,129.052,142.305,129.066,142.846L129.066,142.846z"/>
		</g>
	</g>
	<g>
		<g>
			<path d="M155.322,142.566c-0.212-1.022,1.292-2.994-0.543-3.305c-0.527-0.089-0.753,0.717-0.223,0.807
				c0.596,0.102,0.253,0.806,0.135,1.217c-0.141,0.492-0.282,0.99-0.176,1.504C154.624,143.316,155.43,143.094,155.322,142.566
				L155.322,142.566z"/>
		</g>
	</g>
	<g>
		<g>
			<path d="M154.138,139.455c-0.616,1.036-1.25,0.299-1.745-0.447c-0.583-0.878-0.995-1.887-1.322-2.885
				c-0.361-1.102-0.494-2.282-0.565-3.434c-0.093-1.523-0.048-3.262,0.757-4.609c0.277-0.464-0.446-0.885-0.722-0.422
				c-0.928,1.553-0.964,3.521-0.856,5.273c0.088,1.441,0.346,2.858,0.863,4.207c0.571,1.492,2.624,5.58,4.313,2.738
				C155.137,139.412,154.414,138.991,154.138,139.455L154.138,139.455z"/>
		</g>
	</g>
	<g>
		<g>
			<path d="M151.097,128.105c0.851-0.346,1.488-0.418,2.271,0.125c0.445,0.308,0.863-0.418,0.422-0.724
				c-0.953-0.659-1.87-0.633-2.916-0.209C150.381,127.498,150.596,128.309,151.097,128.105L151.097,128.105z"/>
		</g>
	</g>
	<g>
		<g>
			<path d="M153.874,128.314c1.55-0.713-0.742-2.559-0.797-3.459c-0.032-0.535-0.869-0.539-0.836,0
				c0.034,0.557,0.334,1.027,0.633,1.479c0.138,0.209,0.889,1.112,0.578,1.255C152.962,127.816,153.387,128.537,153.874,128.314
				L153.874,128.314z"/>
		</g>
	</g>
	<g>
		<g>
			<path d="M152.936,125.068c1.756-3.611,1.997-7.977,0.506-11.713c-0.723-1.812-1.885-3.422-3.442-4.605
				c-1.626-1.234-3.755-1.368-5.68-1.781c-0.526-0.113-0.75,0.693-0.223,0.807c1.711,0.369,3.489,0.509,5.033,1.399
				c1.711,0.989,2.892,2.864,3.605,4.654c1.36,3.411,1.075,7.534-0.522,10.817C151.979,125.129,152.7,125.553,152.936,125.068
				L152.936,125.068z"/>
		</g>
	</g>
	<g>
		<g>
			<path d="M146.094,133.848c-0.562-0.682,0.692-0.931,1.141-0.729c0.989,0.445,1.108,2.083,1.178,2.997
				c0.167,2.172-0.149,4.382,0.409,6.514c0.37,1.411,1.598,3.103,3.204,2.197c0.893-0.503,1.521-2.056,0.426-2.679
				c-0.47-0.267-0.892,0.457-0.422,0.724c0.619,0.353-0.34,1.239-0.712,1.36c-1.107,0.361-1.644-1.586-1.806-2.311
				c-0.479-2.14-0.069-4.406-0.338-6.574c-0.176-1.412-0.843-3.285-2.578-3.164c-1.203,0.084-1.885,1.295-1.093,2.254
				C145.846,134.857,146.434,134.262,146.094,133.848L146.094,133.848z"/>
		</g>
	</g>
	<g>
		<g>
			<path d="M138.228,134.422c0.991-0.443,0.41-1.609-0.322-1.965c-1.481-0.721-2.265,1.171-2.52,2.268
				c-0.506,2.188-0.027,4.498-0.454,6.713c-0.197,1.022-0.721,2.506-1.844,2.818c-0.475,0.133-1.228-0.919-0.983-1.007
				c0.503-0.183,0.286-0.99-0.223-0.808c-1.041,0.377-0.583,1.662,0.015,2.232c1.275,1.219,2.76-0.347,3.331-1.467
				c0.985-1.936,0.778-4.348,0.8-6.443c0.011-1.027,0.031-2.793,0.939-3.496c0.393-0.303,1.185,0.276,0.839,0.432
				C137.315,133.919,137.74,134.639,138.228,134.422L138.228,134.422z"/>
		</g>
	</g>
	<g>
		<g>
			<path d="M175.365,69.477c-22.187,0-44.375,0-66.562,0c-20.258,0-40.517,0-60.775,0c-0.54,0-0.54,0.836,0,0.836
				c22.26,0,44.52,0,66.78,0c20.186,0,40.372,0,60.557,0C175.904,70.314,175.904,69.477,175.365,69.477L175.365,69.477z"/>
		</g>
	</g>
	<g>
		<g>
			<path d="M112.257,235.787c-13.702-9.458-25.301-22.102-34.939-35.607c-3.537-4.957-6.622-10.094-9.285-15.576
				c-4.023-8.283-7.163-16.979-9.75-25.81c-3.408-11.625-5.663-23.517-7.778-35.431c-0.905-5.096-1.088-10.355-1.333-15.516
				c-0.313-6.589-0.472-13.185-0.58-19.78c-0.099-6.057-0.146-12.114-0.146-18.172c0-0.54-0.836-0.54-0.836,0
				c0,9.954,0.109,19.909,0.415,29.858c0.188,6.114,0.423,12.238,0.985,18.33c0.365,3.954,1.129,7.824,1.826,11.729
				c2.65,14.871,6.109,29.621,11.528,43.75c2.758,7.19,5.964,14.317,10.067,20.852c3.383,5.389,7.215,10.507,11.243,15.428
				c8.19,10.01,17.495,19.303,28.163,26.667C112.28,236.816,112.697,236.092,112.257,235.787L112.257,235.787z"/>
		</g>
	</g>
	<g>
		<g>
			<path d="M111.557,236.51c13.623-9.404,25.145-21.9,34.792-35.283c3.487-4.836,6.579-9.836,9.232-15.179
				c4.065-8.187,7.257-16.792,9.891-25.536c2.23-7.402,4.03-14.928,5.547-22.506c0.92-4.595,1.647-9.227,2.564-13.822
				c0.967-4.848,1.145-9.897,1.399-14.82c0.34-6.582,0.51-13.174,0.629-19.763c0.118-6.567,0.171-13.136,0.171-19.704
				c0-0.54-0.836-0.54-0.836,0c0,9.954-0.109,19.909-0.415,29.859c-0.188,6.113-0.423,12.237-0.984,18.33
				c-0.367,3.974-1.146,7.866-1.847,11.791c-2.671,14.957-6.18,29.79-11.678,43.983c-2.759,7.121-5.98,14.158-10.085,20.613
				c-3.528,5.547-7.508,10.818-11.71,15.87c-7.924,9.527-16.871,18.39-27.091,25.445
				C110.695,236.092,111.112,236.816,111.557,236.51L111.557,236.51z"/>
		</g>
	</g>
	<rect x="182.5" y="87.084" fill="none" width="267" height="117.777"/>
</g>
<g id="Layer_2">
	<g enable-background="new    ">
		<path d="M184.342,87.428c2.28-0.479,5.88-0.84,9.54-0.84c5.22,0,8.58,0.9,11.1,2.939c2.1,1.561,3.359,3.96,3.359,7.14
			c0,3.9-2.579,7.32-6.839,8.88v0.12c3.84,0.96,8.339,4.14,8.339,10.14c0,3.479-1.38,6.12-3.42,8.1
			c-2.82,2.58-7.379,3.78-13.979,3.78c-3.6,0-6.36-0.24-8.1-0.48V87.428z M189.562,103.987h4.74c5.52,0,8.76-2.88,8.76-6.78
			c0-4.739-3.6-6.6-8.88-6.6c-2.4,0-3.78,0.181-4.62,0.36V103.987z M189.562,123.366c1.02,0.18,2.52,0.24,4.379,0.24
			c5.4,0,10.38-1.98,10.38-7.859c0-5.521-4.74-7.8-10.439-7.8h-4.32V123.366z"/>
		<path d="M236.48,99.728l2.52-3.601l2.34,1.62l-2.52,3.72c2.82,2.7,4.38,6.601,4.38,11.1c0,10.68-7.38,15.42-14.159,15.42
			c-2.7,0-5.34-0.66-7.439-2.04l-2.58,3.66l-2.221-1.8l2.521-3.601c-2.819-2.64-4.5-6.479-4.5-11.22
			c0-9.659,6.36-15.359,14.279-15.359C231.74,97.627,234.32,98.348,236.48,99.728z M234.08,103.327c-1.319-1.08-3-1.74-5.1-1.74
			c-6.479,0-9.059,6-9.059,11.28c0,2.52,0.659,5.159,2.159,7.26l0.12,0.06L234.08,103.327z M224.001,122.347
			c1.38,1.199,3.06,1.68,4.86,1.68c5.52,0,9.18-4.74,9.18-11.279c0-1.98-0.48-4.8-2.041-7.08h-0.119L224.001,122.347z"/>
	</g>
	<g enable-background="new    ">
		<path d="M184.342,158.888h5.22v19.499h0.18c1.08-1.56,2.16-3,3.18-4.319l12.359-15.18h6.479l-14.639,17.159l15.779,23.279h-6.18
			l-13.319-19.859l-3.84,4.44v15.419h-5.22V158.888z"/>
		<path d="M242.961,184.566c0,10.74-7.439,15.42-14.46,15.42c-7.859,0-13.919-5.76-13.919-14.939c0-9.72,6.359-15.42,14.398-15.42
			C237.32,169.627,242.961,175.688,242.961,184.566z M219.922,184.867c0,6.359,3.659,11.159,8.819,11.159
			c5.04,0,8.819-4.74,8.819-11.279c0-4.92-2.46-11.16-8.699-11.16C222.621,173.587,219.922,179.347,219.922,184.867z"/>
		<path d="M249.621,178.147c0-3-0.06-5.46-0.24-7.86h4.621l0.239,4.68h0.181c1.619-2.76,4.319-5.34,9.119-5.34
			c3.96,0,6.959,2.4,8.22,5.82h0.12c0.9-1.62,2.039-2.88,3.24-3.78c1.739-1.319,3.659-2.04,6.419-2.04c3.84,0,9.54,2.521,9.54,12.6
			v17.1h-5.16v-16.439c0-5.58-2.04-8.939-6.3-8.939c-2.999,0-5.34,2.22-6.239,4.8c-0.24,0.72-0.42,1.68-0.42,2.64v17.939h-5.16
			v-17.399c0-4.62-2.04-7.979-6.06-7.979c-3.3,0-5.7,2.64-6.54,5.279c-0.3,0.78-0.42,1.681-0.42,2.58v17.52h-5.16V178.147z"/>
		<path d="M299.661,178.147c0-3-0.06-5.46-0.24-7.86h4.62l0.24,4.68h0.18c1.62-2.76,4.32-5.34,9.119-5.34
			c3.961,0,6.96,2.4,8.221,5.82h0.119c0.9-1.62,2.04-2.88,3.24-3.78c1.74-1.319,3.66-2.04,6.42-2.04c3.84,0,9.539,2.521,9.539,12.6
			v17.1h-5.16v-16.439c0-5.58-2.039-8.939-6.299-8.939c-3,0-5.34,2.22-6.24,4.8c-0.24,0.72-0.42,1.68-0.42,2.64v17.939h-5.16
			v-17.399c0-4.62-2.039-7.979-6.059-7.979c-3.301,0-5.7,2.64-6.541,5.279c-0.299,0.78-0.42,1.681-0.42,2.58v17.52h-5.159V178.147z"
			/>
		<path d="M374,191.406c0,3,0.061,5.64,0.24,7.92h-4.68l-0.301-4.74h-0.119c-1.381,2.34-4.439,5.4-9.6,5.4
			c-4.561,0-10.02-2.521-10.02-12.72v-16.979h5.279v16.08c0,5.52,1.68,9.239,6.48,9.239c3.539,0,5.999-2.46,6.959-4.8
			c0.301-0.78,0.48-1.74,0.48-2.7v-17.819H374V191.406z"/>
		<path d="M382.762,178.147c0-3-0.061-5.46-0.24-7.86h4.68l0.3,4.8h0.12c1.439-2.76,4.8-5.46,9.6-5.46c4.02,0,10.26,2.4,10.26,12.36
			v17.339h-5.28v-16.739c0-4.68-1.739-8.58-6.72-8.58c-3.479,0-6.18,2.46-7.08,5.4c-0.239,0.66-0.359,1.56-0.359,2.46v17.459h-5.279
			V178.147z"/>
		<path d="M419,185.767c0.12,7.14,4.68,10.08,9.96,10.08c3.78,0,6.06-0.66,8.04-1.5l0.899,3.779c-1.86,0.84-5.04,1.8-9.659,1.8
			c-8.939,0-14.279-5.879-14.279-14.639s5.159-15.66,13.619-15.66c9.479,0,12,8.34,12,13.68c0,1.08-0.121,1.92-0.181,2.46H419z
			 M434.479,181.987c0.06-3.36-1.38-8.58-7.319-8.58c-5.34,0-7.68,4.92-8.1,8.58H434.479z"/>
	</g>
</g>
</svg>
